<?xml version="1.0" encoding="utf-8"?>
<!-- Generator: Adobe Illustrator 18.1.1, SVG Export Plug-In . SVG Version: 6.00 Build 0)  -->
<svg version="1.1" id="Layer_1" xmlns="http://www.w3.org/2000/svg" xmlns:xlink="http://www.w3.org/1999/xlink" x="0px" y="0px"
	 viewBox="0 0 600 600" enable-background="new 0 0 600 600" xml:space="preserve">
<path fill="#CDCDCD" stroke="#2C577F" stroke-width="5" stroke-miterlimit="10" d="M492.8,222.3l60.2-34.8l-51.6-89.3L441.2,133
	c-23.5-23.1-52.5-39.8-84.3-48.6V14.5H253.7v70.1c-31.4,8.7-60.2,25.3-83.5,48.1l-60.5-34.9l-51.6,89.3l60.3,34.8
	c-8.4,32.1-8.4,65.9,0,98l-60.9,35.1l51.6,89.3l61-35.2c23.3,22.9,52.1,39.5,83.6,48.3v70.1h103.2v-69.9c31.5-8.7,60.3-25.2,83.7-48
	l60.8,35.1l51.6-89.3l-60.4-34.9C501.1,288.3,501.2,254.5,492.8,222.3z"/>
<circle fill="none" stroke="#2C577F" stroke-width="5" stroke-miterlimit="10" cx="305.3" cy="271" r="130.2"/>
<polygon fill="#2C577F" stroke="#CDCDCD" stroke-width="5" stroke-miterlimit="10" points="220.6,46.6 220.6,195.5 317,46.6 
	365,46.6 172.7,343.7 172.7,46.6 "/>
<polygon fill="#2C577F" stroke="#CDCDCD" stroke-width="5" stroke-miterlimit="10" points="174.3,403.5 348.9,134.8 348.9,256.5 
	428.9,133.4 428.9,403.5 381.1,403.5 381.1,280 301.2,403.5 301.6,280 221.7,403.5 "/>
<text transform="matrix(1 0 0 1 166.0942 544.6289)" fill="#2C577F" stroke="#CDCDCD" stroke-width="5" stroke-miterlimit="10" font-family="'Arial-Black'" font-size="166.1225">5.0</text>
</svg>
